<svg width="167" height="238" viewBox="0 0 167 238" fill="none" xmlns="http://www.w3.org/2000/svg">
<path d="M45.3563 0.410034L45.3563 237.407H20.1397L20.1397 0.410034L45.3563 0.410034ZM37.2592 0.410034L37.2592 22.9248L0.0126953 0.410034L37.2592 0.410034ZM35.6398 227.039H75.4311V237.407H35.6398V227.039ZM37.2592 214.893V237.407H0.0126953L37.2592 214.893ZM75.4311 0.410034V10.7787L35.6398 10.7787V0.410034L75.4311 0.410034ZM35.6398 103.504L75.4311 103.504C93.3217 103.504 106.894 99.2577 116.148 90.7652C125.402 82.0753 130.028 70.7193 130.028 56.6969C130.028 41.6871 125.479 30.331 116.379 22.6285C107.434 14.7286 93.7844 10.7787 75.4311 10.7787V0.410034C92.0879 0.410034 106.123 1.79248 117.536 4.55745C129.103 7.32242 138.28 12.8524 145.066 21.1473C152.006 29.4422 155.476 41.2921 155.476 56.6969C155.476 66.3743 153.471 74.9655 149.461 82.4704C145.451 89.9753 140.13 95.9002 133.499 100.245C126.867 104.59 119.772 107.158 112.215 107.948C126.558 108.935 139.205 113.971 150.155 123.056C161.106 132.141 166.581 146.855 166.581 167.197C166.581 184.182 163.573 197.809 157.558 208.079C151.544 218.151 141.904 225.558 128.64 230.297C115.377 235.037 97.6402 237.407 75.4311 237.407V227.039C93.9387 227.039 107.974 224.373 117.536 219.04C127.098 213.708 133.422 206.795 136.506 198.303C139.591 189.81 141.133 179.442 141.133 167.197C141.133 156.73 139.591 147.743 136.506 140.238C133.422 132.536 127.021 126.216 117.304 121.279C107.742 116.144 93.7844 113.576 75.4311 113.576L35.6398 113.576L35.6398 103.504Z" fill="#FA4811"/>
</svg>
