<svg width="113" height="229" viewBox="0 0 113 229" fill="none" xmlns="http://www.w3.org/2000/svg">
<path d="M0.254395 229L0.254395 0.40625L62.2085 0.40625C78.8335 0.40625 90.9126 4.47591 98.4458 12.6152C106.066 20.668 109.875 34.0026 109.875 52.6191V62.6201C109.875 73.3571 107.927 82.0592 104.031 88.7266C100.221 95.3939 94.3761 99.7666 86.4966 101.845C96.8006 104.442 103.684 110.547 107.148 120.158C110.698 129.683 112.473 141.329 112.473 155.097C112.473 169.903 111.088 182.848 108.317 193.932C105.546 205.015 100.524 213.631 93.2505 219.778C85.9771 225.926 75.6297 229 62.2085 229H0.254395ZM44.9341 86.5186H54.2856C58.5285 86.5186 61.256 84.8734 62.4683 81.583C63.6805 78.2926 64.2866 74.3529 64.2866 69.7637V46.7744C64.2866 39.4144 61.0396 35.7344 54.5454 35.7344H44.9341L44.9341 86.5186ZM49.48 188.736C61.3426 188.736 67.2739 183.108 67.2739 171.852V143.277C67.2739 136.783 66.2782 131.674 64.2866 127.951C62.3817 124.141 58.745 122.236 53.3765 122.236H44.9341L44.9341 188.477C46.839 188.65 48.3543 188.736 49.48 188.736Z" fill="#FA4811"/>
</svg>
