<svg width="144" height="238" viewBox="0 0 144 238" fill="none" xmlns="http://www.w3.org/2000/svg">
<path d="M21.96 0.410034L47.408 0.410034L47.408 237.407H21.96L21.96 0.410034ZM39.3109 214.893V237.407H0.67627L39.3109 214.893ZM39.3109 0.410034L39.3109 22.9248L0.67627 0.410034L39.3109 0.410034ZM143.185 0.410034V10.7787L31.6765 10.7787V0.410034L143.185 0.410034ZM143.185 71.213L93.4455 0.410034L143.185 0.410034V71.213ZM99.2291 108.244V118.613L31.6765 118.613V108.244L99.2291 108.244ZM99.2291 137.572L62.908 108.244H99.2291L99.2291 137.572ZM31.6765 108.244L99.2291 108.244V118.613L31.6765 118.613V108.244ZM62.908 118.613L99.2291 89.2841V118.613H62.908ZM31.6765 227.039L143.185 227.039V237.407L31.6765 237.407L31.6765 227.039ZM93.4455 237.407L143.185 166.604V237.407H93.4455Z" fill="#FA4811"/>
</svg>
