<svg width="144" height="238" viewBox="0 0 144 238" fill="none" xmlns="http://www.w3.org/2000/svg">
<path d="M22.2262 0.592407L47.6741 0.592407L47.6741 237.59H22.2262L22.2262 0.592407ZM39.5771 215.075V237.59H0.942505L39.5771 215.075ZM39.5771 0.592407L39.5771 23.1072L0.942505 0.592407L39.5771 0.592407ZM143.451 0.592407V10.961L31.9427 10.961V0.592407L143.451 0.592407ZM143.451 71.3954L93.7117 0.592407L143.451 0.592407V71.3954ZM99.4954 108.426V118.795L31.9427 118.795V108.426L99.4954 108.426ZM99.4954 137.755L63.1742 108.426H99.4954L99.4954 137.755ZM31.9427 108.426L99.4954 108.426V118.795L31.9427 118.795V108.426ZM63.1742 118.795L99.4954 89.4664V118.795H63.1742ZM31.9427 227.221L143.451 227.221V237.59L31.9427 237.59L31.9427 227.221ZM93.7117 237.59L143.451 166.787V237.59H93.7117Z" fill="#F1EFE1"/>
</svg>
