<svg width="172" height="238" viewBox="0 0 172 238" fill="none" xmlns="http://www.w3.org/2000/svg">
<path d="M22.3985 0H48.0312V237.966H22.3985V0ZM39.8754 215.36V237.966H0.960327L39.8754 215.36ZM30.5544 237.966V215.36L69.4694 237.966H30.5544ZM39.8754 0V22.6068L0.960327 0H39.8754ZM30.5544 22.6068V0H69.4694L30.5544 22.6068ZM124.929 0H150.562V237.966H124.929V0ZM142.406 215.36V237.966H103.491L142.406 215.36ZM133.085 237.966V215.36L172 237.966H133.085ZM142.406 0V22.6068L103.491 0H142.406ZM133.085 22.6068V0H172L133.085 22.6068ZM134.716 113.629V124.04H33.1177V113.629H134.716Z" fill="#FA4811"/>
</svg>
