<svg width="150" height="238" viewBox="0 0 150 238" fill="none" xmlns="http://www.w3.org/2000/svg">
<path d="M22.2471 0.804138L47.6951 0.804138L47.6951 237.802H22.2471L22.2471 0.804138ZM39.598 215.287V237.802H0.963379L39.598 215.287ZM30.3442 237.802L30.3442 215.287L68.9787 237.802H30.3442ZM39.598 0.804138L39.598 23.3189L0.963379 0.804138L39.598 0.804138ZM30.3442 23.3189L30.3442 0.804138L68.9787 0.804138L30.3442 23.3189ZM93.9641 45.2411L56.4862 123.154L50.0085 115.452C54.6354 104.787 57.4886 98.1706 58.5682 95.6031C68.7474 73.2858 77.3843 56.696 84.4789 45.8336C91.5734 34.7737 99.8247 25.7876 109.233 18.8752C118.795 11.7653 131.288 5.74158 146.711 0.804138V45.2411L93.9641 45.2411ZM56.4862 113.97V125.228H47.6951V113.97H56.4862ZM149.487 237.802H118.486L50.0085 123.747L56.4862 114.859L149.487 237.802Z" fill="#FA4811"/>
</svg>
