<svg width="114" height="234" viewBox="0 0 114 234" fill="none" xmlns="http://www.w3.org/2000/svg">
<path d="M57.0833 233.644C38.8131 233.644 24.8291 228.145 15.1312 217.149C5.51983 206.065 0.714172 190.09 0.714172 169.222L0.714172 60.6398C0.714172 41.0708 5.47653 26.2208 15.0013 16.09C24.6126 5.95911 38.6399 0.893677 57.0833 0.893677C75.5267 0.893677 89.5107 5.95911 99.0355 16.09C108.647 26.2208 113.452 41.0708 113.452 60.6398L113.452 169.222C113.452 190.09 108.603 206.065 98.9056 217.149C89.2942 228.145 75.3535 233.644 57.0833 233.644ZM57.473 191.562C64.4 191.562 67.8636 184.851 67.8636 171.43L67.8636 59.8605C67.8636 48.604 64.4866 42.9757 57.7327 42.9757C50.1129 42.9757 46.303 48.7338 46.303 60.2501L46.303 171.69C46.303 178.79 47.1689 183.899 48.9007 187.016C50.6325 190.046 53.4899 191.562 57.473 191.562Z" fill="#FA4811"/>
</svg>
