<svg width="157" height="239" viewBox="0 0 157 239" fill="none" xmlns="http://www.w3.org/2000/svg">
<path d="M78.4349 238.788C63.0119 238.788 49.3626 234.443 37.4869 225.753C25.7654 216.866 16.5887 203.535 9.95686 185.76C3.32497 167.788 0.0090332 145.767 0.0090332 119.697C0.0090332 93.6272 3.32497 71.7049 9.95686 53.9301C16.5887 35.9578 25.7654 22.6267 37.4869 13.9368C49.3626 5.04942 63.0119 0.605713 78.4349 0.605713C94.0121 0.605713 107.661 5.04942 119.383 13.9368C131.104 22.6267 140.204 35.8591 146.682 53.6339C153.313 71.4087 156.629 93.4297 156.629 119.697C156.629 145.964 153.313 167.985 146.682 185.76C140.204 203.535 131.104 216.866 119.383 225.753C107.661 234.443 94.0121 238.788 78.4349 238.788ZM78.4349 228.419C89.5394 228.419 98.8703 223.877 106.428 214.792C113.985 205.707 119.614 193.067 123.316 176.873C127.172 160.678 129.099 141.619 129.099 119.697C129.099 97.7746 127.172 78.7161 123.316 62.5213C119.614 46.3265 113.985 33.6866 106.428 24.6017C98.8703 15.5168 89.5394 10.9744 78.4349 10.9744C67.3303 10.9744 57.9994 15.5168 50.4422 24.6017C42.8849 33.6866 37.1784 46.3265 33.3227 62.5213C29.4669 78.7161 27.5391 97.7746 27.5391 119.697C27.5391 141.619 29.4669 160.678 33.3227 176.873C37.1784 193.067 42.8849 205.707 50.4422 214.792C57.9994 223.877 67.3303 228.419 78.4349 228.419Z" fill="#F1EFE1"/>
</svg>
