<svg width="87" height="237" viewBox="0 0 87 237" fill="none" xmlns="http://www.w3.org/2000/svg">
<path d="M0.263184 55.5081C0.263184 47.0441 1.93266 38.5801 5.27161 30.1161C8.61056 21.4553 13.6949 14.2707 20.5245 8.56244C27.506 2.85415 36.0051 0 46.022 0C59.6813 0 69.9258 2.26363 76.7555 6.79089C83.5852 11.1213 87 17.7154 87 26.573C87 32.4782 84.0405 38.2849 78.1215 43.9932C72.3542 49.7014 63.9309 56.5907 52.8517 64.6611C46.6291 71.944 41.3171 78.4397 36.9158 84.148C32.5144 89.8562 28.4166 96.5487 24.6224 104.225C20.9799 111.902 18.248 120.366 16.4267 129.617H75.1619L84.9511 105.406V161.8H2.31209V129.617C3.82979 120.563 6.63754 112.099 10.7353 104.225C14.9849 96.3519 19.6139 89.3641 24.6224 83.2622C29.6308 77.1602 35.3981 70.1725 41.9242 62.299C48.7539 54.2287 53.7623 47.5362 56.9495 42.2216C60.1367 36.907 61.7302 31.6908 61.7302 26.573C61.7302 21.0616 60.4402 17.0264 57.8601 14.4676C55.28 11.7118 51.334 10.334 46.022 10.334C38.8888 10.334 33.6527 14.1723 30.3137 21.8489C27.1266 29.3288 25.533 40.5485 25.533 55.5081H0.263184ZM42.8348 236.5C39.6476 236.5 36.6881 235.516 33.9562 233.547C31.2244 231.382 29.0237 228.528 27.3542 224.985C25.6847 221.442 24.85 217.505 24.85 213.175C24.85 209.041 25.6847 205.301 27.3542 201.955C29.0237 198.412 31.2244 195.656 33.9562 193.688C36.6881 191.523 39.6476 190.44 42.8348 190.44C46.022 190.44 48.9056 191.523 51.4857 193.688C54.2176 195.656 56.4183 198.412 58.0877 201.955C59.7572 205.301 60.592 209.041 60.592 213.175C60.592 217.505 59.7572 221.442 58.0877 224.985C56.4183 228.528 54.2176 231.382 51.4857 233.547C48.9056 235.516 46.022 236.5 42.8348 236.5Z" fill="#FA4811"/>
</svg>
