<svg width="155" height="238" viewBox="0 0 155 238" fill="none" xmlns="http://www.w3.org/2000/svg">
<path d="M125.912 206.696L136.785 237.802H111.8L125.912 206.696ZM87.5089 124.635L154.136 237.802H136.785L70.1581 124.635H87.5089ZM46.3296 0.804138L46.3296 237.802H21.113L21.113 0.804138L46.3296 0.804138ZM38.2325 237.802H0.754639L38.2325 215.287V237.802ZM76.1731 11.7653L36.6131 11.7653V0.804138L76.1731 0.804138V11.7653ZM38.2325 23.3189L0.754639 0.804138L38.2325 0.804138L38.2325 23.3189ZM36.6131 124.635L76.1731 124.635C90.6707 124.635 101.544 122.167 108.793 117.229C116.196 112.292 121.054 105.972 123.367 98.2693C125.681 90.5669 126.838 81.2845 126.838 70.4221C126.838 58.3747 125.681 48.2036 123.367 39.9087C121.054 31.6138 116.196 24.8988 108.793 19.7639C101.544 14.4315 90.6707 11.7653 76.1731 11.7653V0.804138C93.2926 0.804138 107.405 3.1741 118.509 7.91405C129.768 12.654 138.173 20.1589 143.726 30.4288C149.278 40.6987 152.054 54.0298 152.054 70.4221C152.054 85.8269 149.278 98.2693 143.726 107.749C138.328 117.229 129.999 124.142 118.741 128.486C107.636 132.831 93.4468 135.004 76.1731 135.004H36.6131V124.635ZM29.2101 215.287L66.6879 237.802H29.2101L29.2101 215.287Z" fill="#FA4811"/>
</svg>
