<svg width="113" height="229" viewBox="0 0 113 229" fill="none" xmlns="http://www.w3.org/2000/svg">
<path d="M0.90332 229L0.90332 0.40625L71.04 0.40625C82.7295 0.40625 91.5615 3.09049 97.5361 8.45898C103.511 13.7409 107.494 21.1875 109.485 30.7988C111.563 40.3236 112.603 51.5368 112.603 64.4385C112.603 76.9072 111.001 86.8649 107.797 94.3115C104.68 101.758 98.7484 106.91 90.0029 109.768C97.1898 111.24 102.212 114.833 105.069 120.548C108.013 126.176 109.485 133.493 109.485 142.498L109.485 229L64.416 229V139.511C64.416 132.843 63.0306 128.73 60.2598 127.172C57.5755 125.527 53.2028 124.704 47.1416 124.704L47.1416 229H0.90332ZM47.4014 85.0898H58.4414C64.7624 85.0898 67.9229 78.2061 67.9229 64.4385C67.9229 55.5199 67.2301 49.6751 65.8447 46.9043C64.4593 44.1335 61.8617 42.748 58.0518 42.748H47.4014L47.4014 85.0898Z" fill="#FA4811"/>
</svg>
