<svg width="135" height="239" viewBox="0 0 135 239" fill="none" xmlns="http://www.w3.org/2000/svg">
<path d="M2.36403 140.421C9.45861 161.553 16.6302 178.538 23.879 191.375C31.1278 204.015 38.7622 213.298 46.7822 219.223C54.9564 224.95 64.0559 227.814 74.0809 227.814C89.6581 227.814 101.302 224.061 109.014 216.556C116.725 209.051 120.581 197.498 120.581 181.896C120.581 175.773 119.347 169.848 116.88 164.121C114.566 158.393 110.71 153.258 105.312 148.716C100.069 143.976 93.2054 140.52 84.7228 138.347L45.8568 128.275C34.2896 125.312 25.1129 120.869 18.3268 114.944C11.6949 109.019 6.99089 101.613 4.21476 92.7252C1.43862 83.8378 0.0505371 72.8767 0.0505371 59.8419C0.0505371 46.807 2.28691 35.8459 6.75958 26.9585C11.2322 17.8736 17.4014 11.1586 25.2671 6.81368C33.1328 2.27123 42.0782 0 52.1031 0C60.8942 0 68.9142 0.789993 76.163 2.36998C83.4118 3.94996 92.4342 6.41868 103.23 9.77614L119.193 14.2199L119.424 88.874C112.33 70.3092 105.775 55.5956 99.7601 44.7333C93.7452 33.6734 86.882 25.181 79.1705 19.256C71.6132 13.3311 62.5907 10.3686 52.1031 10.3686C40.0732 10.3686 30.6652 14.0224 23.879 21.3298C17.0929 28.4397 13.6999 39.3021 13.6999 53.9169C13.6999 60.4343 14.9337 66.3593 17.4014 71.6917C19.8691 76.8267 23.4164 81.2704 28.0433 85.0228C32.8244 88.5778 38.7623 91.3428 45.8568 93.3177L84.4914 103.39C96.8298 106.55 106.623 110.994 113.872 116.721C121.121 122.251 126.288 129.657 129.372 138.94C132.611 148.025 134.231 159.776 134.231 174.193C134.231 187.425 131.917 198.782 127.29 208.261C122.818 217.741 116.109 225.148 107.163 230.48C98.2179 235.615 87.1904 238.182 74.0809 238.182C66.3694 238.182 59.2748 237.689 52.7971 236.701C46.3195 235.516 39.2249 233.64 31.5134 231.072C23.9562 228.308 14.3939 224.259 2.82668 218.926L2.36403 140.421Z" fill="#FA4811"/>
</svg>
