<svg width="114" height="234" viewBox="0 0 114 234" fill="none" xmlns="http://www.w3.org/2000/svg">
<path d="M59.9167 233.644C39.0489 233.644 23.9825 228.448 14.7175 218.058C5.53914 207.667 0.949951 191.129 0.949951 168.443L0.949951 146.103H46.1492L46.1492 174.677C46.1492 179.959 46.9285 184.115 48.4871 187.146C50.1322 190.09 52.9464 191.562 56.9294 191.562C61.0857 191.562 63.9431 190.349 65.5017 187.925C67.1469 185.5 67.9695 181.517 67.9695 175.976C67.9695 168.962 67.2768 163.117 65.8914 158.442C64.5059 153.679 62.0815 149.177 58.6179 144.934C55.241 140.604 50.5219 135.582 44.4607 129.867L23.9392 110.385C8.61304 95.9246 0.949951 79.3862 0.949951 60.7697C0.949951 41.2872 5.45256 26.4373 14.4578 16.2198C23.5496 6.0024 36.6677 0.893677 53.8123 0.893677C74.7667 0.893677 89.6166 6.47864 98.362 17.6486C107.194 28.8185 111.61 45.7898 111.61 68.5626H65.1121V52.8468C65.1121 49.7296 64.2029 47.3051 62.3845 45.5734C60.6528 43.8416 58.2716 42.9757 55.241 42.9757C51.6042 42.9757 48.92 44.0148 47.1882 46.0929C45.5431 48.0844 44.7205 50.6821 44.7205 53.8859C44.7205 57.0896 45.5863 60.5532 47.3181 64.2765C49.0499 67.9998 52.4701 72.2859 57.5789 77.1349L83.945 102.462C89.2269 107.484 94.0759 112.809 98.4919 118.438C102.908 123.979 106.458 130.473 109.142 137.92C111.827 145.28 113.169 154.285 113.169 164.936C113.169 186.41 109.186 203.251 101.219 215.46C93.3399 227.582 79.5723 233.644 59.9167 233.644Z" fill="#FA4811"/>
</svg>
