<svg width="172" height="238" viewBox="0 0 172 238" fill="none" xmlns="http://www.w3.org/2000/svg">
<path d="M73.1105 0.409973L98.5585 0.409973L98.5585 237.407L73.1105 237.407L73.1105 0.409973ZM90.4614 216.67L90.4614 237.407L51.8268 237.407L90.4614 216.67ZM81.2076 237.407L81.2076 216.67L119.842 237.407L81.2076 237.407ZM159.634 0.409973V10.7786L98.5585 10.7786V0.409973L159.634 0.409973ZM171.201 71.2129L127.014 0.409973L159.634 0.409973L171.201 71.2129ZM73.1105 10.7786L12.0355 10.7786L12.0355 0.409973L73.1105 0.409973V10.7786ZM44.6552 0.409973L0.468262 71.2129L12.0355 0.409973L44.6552 0.409973Z" fill="#FA4811"/>
</svg>
