<svg width="112" height="232" viewBox="0 0 112 232" fill="none" xmlns="http://www.w3.org/2000/svg">
<path d="M55.8052 231.078C36.7557 231.078 22.7284 225.753 13.7231 215.103C4.71794 204.366 0.215332 188.606 0.215332 167.825L0.215332 0.40625L44.6353 0.40625L44.6353 166.007C44.6353 169.817 44.8517 173.497 45.2847 177.047C45.7176 180.51 46.7134 183.368 48.272 185.619C49.8306 187.87 52.3416 188.996 55.8052 188.996C59.3553 188.996 61.9097 187.914 63.4683 185.749C65.0269 183.498 65.9793 180.597 66.3257 177.047C66.7586 173.497 66.9751 169.817 66.9751 166.007L66.9751 0.40625L111.395 0.40625L111.395 167.825C111.395 188.606 106.892 204.366 97.8872 215.103C88.882 225.753 74.8547 231.078 55.8052 231.078Z" fill="#FA4811"/>
</svg>
