<svg width="169" height="238" viewBox="0 0 169 238" fill="none" xmlns="http://www.w3.org/2000/svg">
<path d="M147.017 154.458C147.017 174.998 144.704 191.39 140.077 203.635C135.45 215.683 128.972 224.373 120.644 229.705C112.316 234.84 102.136 237.407 90.1065 237.407C74.6835 237.407 61.9596 234.84 51.9346 229.705C42.0639 224.57 34.5066 215.979 29.2628 203.932C24.1732 191.687 21.6284 175.196 21.6284 154.458H48.9271C48.9271 173.813 50.7779 188.823 54.4794 199.488C58.3351 210.153 63.4247 217.46 69.7481 221.41C76.0716 225.163 83.783 227.039 92.8826 227.039C102.445 227.039 110.542 224.965 117.174 220.818C123.96 216.67 129.281 209.363 133.137 198.895C136.992 188.23 138.92 173.418 138.92 154.458H147.017ZM21.6284 0.410034L48.9271 0.410034L48.9271 154.458H21.6284L21.6284 0.410034ZM41.2927 0.410034L41.2927 22.9248L0.344727 0.410034L41.2927 0.410034ZM29.2628 22.9248L29.2628 0.410034L70.2108 0.410034L29.2628 22.9248ZM138.92 0.410034L147.017 0.410034L147.017 154.458H138.92L138.92 0.410034ZM147.017 0.410034V22.9248L117.637 0.410034L147.017 0.410034ZM138.92 22.9248V0.410034L168.301 0.410034L138.92 22.9248Z" fill="#FA4811"/>
</svg>
