<svg width="238" height="238" viewBox="0 0 238 238" fill="none" xmlns="http://www.w3.org/2000/svg">
<path d="M107.181 0.592407L115.278 0.592407L160.39 187.524L208.047 0.592407L237.659 0.592407L184.913 198.781L166.174 237.59L107.181 0.592407ZM0.762451 0.592407L8.85951 0.592407L55.3598 187.524L103.017 0.592407L132.629 0.592407L75.7181 214.483L61.1434 237.59L0.762451 0.592407ZM8.85951 0.592407L38.9343 0.592407L34.0761 110.5L8.85951 0.592407ZM86.5913 0.592407L104.174 0.592407L105.099 21.6259L86.5913 0.592407ZM115.278 0.592407L143.965 0.592407L139.107 110.5L115.278 0.592407ZM186.995 0.592407L208.741 0.592407L205.503 21.6259L186.995 0.592407Z" fill="#F1EFE1"/>
</svg>
