<svg width="655" height="484" viewBox="0 0 655 484" fill="none" xmlns="http://www.w3.org/2000/svg">
<clipPath id="svgPath3" clipPathUnits="objectBoundingBox">
<path d="M654.11 121.23C654.11 54.28 599.84 0 532.88 0C489.46 0 451.38 22.83 429.97 57.14C408.56 22.83 370.48 0 327.06 0C260.1 0 205.82 54.28 205.82 121.23C205.82 127.71 206.34 134.07 207.32 140.28C199.32 101.72 165.16 72.74 124.23 72.74C77.36 72.74 39.37 110.74 39.37 157.6C39.37 200.75 71.57 236.34 113.24 241.73C50.01 245.85 0 298.43 0 362.7C0 426.97 54.27 483.93 121.23 483.93C164.65 483.93 202.73 461.1 224.14 426.79C245.55 461.1 283.64 483.93 327.06 483.93C394.01 483.93 448.29 429.65 448.29 362.7C448.29 356.22 447.77 349.86 446.79 343.65C454.79 382.21 488.95 411.19 529.88 411.19C576.75 411.19 614.74 373.2 614.74 326.33C614.74 283.19 582.54 247.59 540.87 242.2C604.1 238.08 654.11 185.5 654.11 121.23Z" fill="#FA4811"/>
</clipPath>
</svg>
