<svg width="61" height="54" viewBox="0 0 61 54" fill="none" xmlns="http://www.w3.org/2000/svg">
<g clip-path="url(#clip0_146_931)">
<path d="M45.9982 46.267H49.0524L61 0H57.9458L45.9982 46.267ZM-1.35965e-06 46.267H31.1311C34.8471 46.267 34.1853 48.5793 32.8558 54H33.8515L35.9101 46.267L42.2148 22.473H41.02C39.2952 29.0164 36.9701 36.8165 35.9745 38.5339C34.7797 40.648 33.4532 42.2342 31.462 43.1615C30.2672 43.7564 29.2042 44.1529 26.0182 44.1529H21.04C17.7222 44.1529 17.9858 43.0303 18.7823 39.989L27.8748 5.48777C28.4048 3.57201 29.336 2.44646 30.9934 1.78746C32.4547 1.19261 34.3112 1.12555 35.8398 0.99433L35.9072 0.664831L36.0389 0.201199L36.1063 0.00291592H13.5406L13.2741 0.99433C14.668 1.12555 16.5275 1.19261 17.7222 1.78746C18.9843 2.44938 19.3826 3.57201 18.8496 5.48777L10.6181 36.8165C9.22423 42.0389 8.2286 43.2927 6.56824 44.1529C5.107 44.879 1.78921 45.1443 0.263548 45.2756L-0.00292969 46.267H-1.35965e-06Z" fill="#F20909"/>
</g>
<defs>
<clipPath id="clip0_146_931">
<rect width="61" height="54" fill="white"/>
</clipPath>
</defs>
</svg>
