<svg width="66" height="48" viewBox="0 0 66 48" fill="none" xmlns="http://www.w3.org/2000/svg">
<rect x="12" width="6" height="6" fill="#FA4811"/>
<rect x="12" y="6" width="6" height="6" fill="#FA4811"/>
<rect x="6" y="12" width="6" height="6" fill="#FA4811"/>
<rect x="6" y="18" width="6" height="6" fill="#FA4811"/>
<rect x="6" y="24" width="6" height="6" fill="#FA4811"/>
<rect x="6" y="30" width="6" height="6" fill="#FA4811"/>
<rect x="6" y="36" width="6" height="6" fill="#FA4811"/>
<rect x="6" y="42" width="6" height="6" fill="#FA4811"/>
<rect x="12" y="42" width="6" height="6" fill="#FA4811"/>
<rect x="18" y="42" width="6" height="6" fill="#FA4811"/>
<rect x="30" y="36" width="6" height="6" fill="#FA4811"/>
<rect x="36" y="30" width="6" height="6" fill="#FA4811"/>
<rect x="42" y="42" width="6" height="6" fill="#FA4811"/>
<rect x="48" y="36" width="6" height="6" fill="#FA4811"/>
<rect x="48" y="30" width="6" height="6" fill="#FA4811"/>
<rect x="48" y="24" width="6" height="6" fill="#FA4811"/>
<rect x="48" y="18" width="6" height="6" fill="#FA4811"/>
<rect x="48" y="12" width="6" height="6" fill="#FA4811"/>
<rect x="54" y="6" width="6" height="6" fill="#FA4811"/>
<rect x="60" width="6" height="6" fill="#FA4811"/>
<rect x="24" y="42" width="6" height="6" fill="#FA4811"/>
<rect y="42" width="6" height="6" fill="#FA4811"/>
</svg>
