<svg width="55" height="49" viewBox="0 0 55 49" fill="none" xmlns="http://www.w3.org/2000/svg">
<path fill-rule="evenodd" clip-rule="evenodd" d="M22 0H13L12.3367 2.5H21.3367L22 0ZM20.8061 4.5H11.8061L10.9439 7.75H19.9439L20.8061 4.5ZM47.9439 7.75L48.8061 4.5H53.8061L52.9439 7.75H47.9439ZM19.4133 9.75H10.4133L9.55102 13H18.551L19.4133 9.75ZM46.551 13L47.4133 9.75H52.4133L51.551 13H46.551ZM18.0204 15H9.02041L8.15816 18.25H17.1582L18.0204 15ZM45.1582 18.25L46.0204 15H51.0204L50.1582 18.25H45.1582ZM16.6276 20.25H7.62755L6.76531 23.5H15.7653L16.6276 20.25ZM43.7653 23.5L44.6276 20.25H49.6276L48.7653 23.5H43.7653ZM15.2347 25.5H6.23469L5.37245 28.75H14.3724L15.2347 25.5ZM42.3724 28.75L43.2347 25.5H48.2347L47.3724 28.75H42.3724ZM13.8418 30.75H4.84184L3.97959 34H12.9796L13.8418 30.75ZM40.9796 34L41.8418 30.75H46.8418L45.9796 34H40.9796ZM12.449 36H3.44898L2.58673 39.25H11.5867L12.449 36ZM39.5867 39.25L40.449 36H45.449L44.5867 39.25H39.5867ZM11.0561 41.25H2.05612L1.19388 44.5H33.625L34 43H10.5918L11.0561 41.25ZM38.1939 44.5L39.0561 41.25H44.0561L43.1939 44.5H38.1939ZM33.125 46.5H0.663265L0 49H7H9H32.5L33.125 46.5ZM37.6633 46.5H42.6633L42 49H37L37.6633 46.5ZM54.3367 2.5H49.3367L50 0H55L54.3367 2.5Z" fill="#F20909"/>
</svg>
