<svg width="248" height="234" viewBox="0 0 248 234" fill="none" xmlns="http://www.w3.org/2000/svg">
<g clip-path="url(#clip0_571_892)">
<path d="M207.12 131.19C206.46 130.29 205.72 129.46 204.92 128.7C204.77 128.54 204.62 128.39 204.47 128.25C204.32 128.09 204.17 127.94 204.02 127.79C203.87 127.64 203.72 127.49 203.57 127.34C203.42 127.19 203.27 127.04 203.12 126.89C202.97 126.74 202.82 126.59 202.66 126.44C202.51 126.29 202.37 126.13 202.21 125.99C202.06 125.83 201.91 125.68 201.76 125.54C201.61 125.38 201.46 125.23 201.31 125.08C201.16 124.93 201.01 124.78 200.86 124.63C200.71 124.48 200.56 124.33 200.41 124.18C200.26 124.03 200.11 123.88 199.95 123.73C199.8 123.58 199.66 123.42 199.5 123.28C199.35 123.12 199.2 122.97 199.05 122.83C198.9 122.67 198.75 122.52 198.6 122.37C198.45 122.22 198.3 122.07 198.15 121.92C198 121.77 197.85 121.62 197.7 121.47C197.55 121.32 197.4 121.17 197.24 121.02C197.1 120.87 196.95 120.71 196.79 120.57C196.64 120.41 196.5 120.26 196.34 120.12C196.19 119.96 196.04 119.81 195.89 119.66C195.74 119.51 195.59 119.36 195.44 119.21C195.29 119.06 195.14 118.91 194.99 118.76C194.84 118.61 194.69 118.46 194.53 118.31C194.39 118.16 194.24 118 194.08 117.86C193.93 117.71 193.79 117.55 193.63 117.41C193.48 117.25 193.33 117.1 193.18 116.95C193.03 116.8 192.88 116.65 192.73 116.5C192.58 116.35 192.43 116.2 192.28 116.05C192.13 115.9 191.98 115.75 191.82 115.6C191.68 115.45 191.53 115.29 191.37 115.15C187.98 111.69 183.29 109.68 178.38 109.68H162.51C161.99 109.68 161.48 109.71 160.97 109.74L170.88 79.34C172.8 73.46 171.77 66.96 168.14 61.96C167.44 60.99 166.66 60.11 165.81 59.3L165.36 58.85C165.21 58.7 165.06 58.55 164.91 58.4C164.76 58.25 164.61 58.09 164.46 57.95C164.31 57.8 164.16 57.64 164.01 57.5C163.86 57.34 163.71 57.19 163.55 57.04C163.4 56.89 163.26 56.74 163.1 56.59C162.95 56.44 162.81 56.29 162.65 56.14C162.5 55.99 162.35 55.84 162.2 55.69C162.05 55.54 161.9 55.38 161.75 55.24C161.6 55.09 161.45 54.93 161.3 54.79C161.15 54.63 161 54.48 160.84 54.33C160.69 54.18 160.55 54.03 160.39 53.88C160.24 53.73 160.1 53.58 159.94 53.43C159.79 53.28 159.64 53.13 159.49 52.98C159.34 52.83 159.19 52.67 159.04 52.53C158.89 52.38 158.74 52.22 158.59 52.08C158.44 51.93 158.29 51.77 158.13 51.62C157.98 51.47 157.84 51.32 157.68 51.17C157.53 51.02 157.39 50.87 157.23 50.72C157.08 50.57 156.93 50.42 156.78 50.27C156.63 50.12 156.48 49.96 156.33 49.82C156.18 49.67 156.03 49.51 155.88 49.37C155.73 49.22 155.58 49.06 155.43 48.92C155.28 48.76 155.13 48.61 154.97 48.46C154.82 48.31 154.68 48.16 154.52 48.01C154.37 47.86 154.22 47.71 154.07 47.56C153.92 47.41 153.77 47.25 153.62 47.11C153.47 46.96 153.32 46.8 153.17 46.66C153.02 46.5 152.87 46.35 152.71 46.21C152.57 46.05 152.42 45.9 152.26 45.75C148.65 42.09 143.68 39.96 138.47 39.96H118.92C108.98 39.96 100.24 46.31 97.16 55.75L79.55 109.79C80.2 111.74 80.92 113.7 81.71 115.67C83.31 119.66 85.13 123.61 87.18 127.5L109.29 59.71C110.65 55.54 114.53 52.72 118.92 52.72H138.47C142.96 52.72 146.15 57.11 144.75 61.38L122.5 129.62C121.36 133.14 123.98 136.76 127.69 136.76H146.53C148.89 136.76 150.99 135.24 151.72 133L152.88 129.43C154.24 125.26 158.13 122.44 162.51 122.44H178.38C182.09 122.44 184.71 126.06 183.56 129.58L180.13 140.1C178.77 144.26 174.89 147.09 170.51 147.09H99.61C106.81 156.68 115.33 165.7 124.93 173.84H184.51C194.44 173.84 203.18 167.5 206.26 158.05L209.69 147.53C211.49 142.01 210.53 135.9 207.12 131.19Z" fill="#FA4811"/>
<path d="M226.56 51.1801C228.65 47.9101 227.69 43.5601 224.41 41.4701C221.99 39.9201 217.36 42.5801 214.53 44.9901C214.07 45.3901 213.36 44.9401 213.53 44.3501C214.52 40.7701 214.98 35.4501 212.56 33.9101C209.29 31.8201 204.94 32.7801 202.85 36.0501C202.76 36.1901 202.58 36.2301 202.44 36.1401C199.17 34.0501 194.82 35.0101 192.73 38.2901C191.18 40.7101 193.84 45.3401 196.25 48.1701C196.65 48.6301 196.2 49.3401 195.61 49.1701C192.03 48.1801 186.71 47.7201 185.17 50.1401C183.08 53.4101 184.04 57.7601 187.31 59.8501C187.45 59.9401 187.49 60.1201 187.4 60.2601C185.31 63.5301 186.27 67.8801 189.55 69.9701C191.97 71.5201 196.6 68.8601 199.43 66.4501C199.89 66.0501 200.6 66.5001 200.43 67.0901C199.44 70.6701 198.98 75.9901 201.4 77.5301C204.67 79.6201 209.02 78.6601 211.11 75.3901C211.2 75.2501 211.38 75.2101 211.52 75.3001C214.79 77.3901 219.14 76.4301 221.23 73.1501C222.78 70.7301 220.12 66.1001 217.71 63.2701C217.31 62.8101 217.76 62.1001 218.35 62.2701C221.93 63.2601 227.25 63.7201 228.79 61.3001C230.88 58.0301 229.92 53.6801 226.65 51.5901C226.51 51.5001 226.47 51.3201 226.56 51.1801Z" fill="#FA4811"/>
<path d="M245.24 93.3901C247.02 92.6101 247.83 90.5401 247.05 88.7601C246.47 87.4401 243.81 87.2601 241.97 87.4701C241.67 87.5101 241.5 87.1201 241.73 86.9301C243.14 85.7201 244.81 83.6401 244.23 82.3201C243.45 80.5401 241.38 79.7301 239.6 80.5101C239.52 80.5401 239.44 80.5101 239.41 80.4301C238.63 78.6501 236.56 77.8401 234.78 78.6201C233.46 79.2001 233.28 81.8601 233.49 83.7001C233.53 84.0001 233.14 84.1701 232.95 83.9401C231.74 82.5301 229.66 80.8601 228.34 81.4401C226.56 82.2201 225.75 84.2901 226.53 86.0701C226.56 86.1501 226.53 86.2301 226.45 86.2601C224.67 87.0401 223.86 89.1101 224.64 90.8901C225.22 92.2101 227.88 92.3901 229.72 92.1801C230.02 92.1401 230.19 92.5301 229.96 92.7201C228.55 93.9301 226.88 96.0101 227.46 97.3301C228.24 99.1101 230.31 99.9201 232.09 99.1401C232.17 99.1101 232.25 99.1401 232.28 99.2201C233.06 101 235.13 101.81 236.91 101.03C238.23 100.45 238.41 97.7901 238.2 95.9501C238.16 95.6501 238.55 95.4801 238.74 95.7101C239.95 97.1201 242.03 98.7901 243.35 98.2101C245.13 97.4301 245.94 95.3601 245.16 93.5801C245.13 93.5001 245.16 93.4201 245.24 93.3901Z" fill="#FA4811"/>
<path d="M231.02 121.63C232.3 121.07 232.88 119.58 232.32 118.3C231.91 117.35 229.99 117.22 228.67 117.38C228.45 117.41 228.33 117.13 228.5 116.99C229.51 116.12 230.71 114.62 230.3 113.68C229.74 112.4 228.25 111.82 226.97 112.38C226.92 112.4 226.85 112.38 226.83 112.33C226.27 111.05 224.78 110.47 223.5 111.03C222.55 111.44 222.42 113.36 222.58 114.68C222.61 114.9 222.33 115.02 222.19 114.85C221.32 113.84 219.82 112.64 218.88 113.05C217.6 113.61 217.02 115.1 217.58 116.38C217.6 116.43 217.58 116.5 217.53 116.52C216.25 117.08 215.67 118.57 216.23 119.85C216.64 120.8 218.56 120.93 219.88 120.77C220.1 120.74 220.22 121.02 220.05 121.16C219.04 122.03 217.84 123.53 218.25 124.47C218.81 125.75 220.3 126.33 221.58 125.77C221.63 125.75 221.7 125.77 221.72 125.82C222.28 127.1 223.77 127.68 225.05 127.12C226 126.71 226.13 124.79 225.97 123.47C225.94 123.25 226.22 123.13 226.36 123.3C227.23 124.31 228.73 125.51 229.67 125.1C230.95 124.54 231.53 123.05 230.97 121.77C230.95 121.72 230.97 121.65 231.02 121.63Z" fill="#FA4811"/>
<path d="M226.05 219.06C212.89 228.67 195.52 233.81 175.46 233.81C109.99 233.81 35.3299 180.42 9.03989 114.79C-3.87011 82.59 -2.91011 51.77 11.6699 30.22C24.8499 10.73 48.1399 0 77.2299 0C96.8899 0 118.05 4.91 138.84 14.12C138.17 14.1 137.5 14.1 136.83 14.1C110.3 14.1 88.8599 24.19 76.4599 42.52C62.9899 62.43 61.8599 90.31 73.3599 119.01C84.1499 145.95 104.73 171.24 131.3 190.2C157.95 209.23 187.56 219.71 214.68 219.71C218.58 219.71 222.37 219.49 226.05 219.06Z" fill="#FA4811"/>
</g>
<defs>
<clipPath id="clip0_571_892">
<rect width="247.34" height="233.81" fill="white"/>
</clipPath>
</defs>
</svg>
