<svg width="71" height="51" viewBox="0 0 71 51" fill="none" xmlns="http://www.w3.org/2000/svg">
<path fill-rule="evenodd" clip-rule="evenodd" d="M25.5443 13.4172C27.553 12.2882 28.9101 10.1368 28.9101 7.66853C28.9101 4.02904 25.9597 1.07864 22.3202 1.07864C18.6807 1.07864 15.7303 4.02904 15.7303 7.66853C15.7303 8.97767 16.112 10.1976 16.7703 11.2232C14.7616 12.3522 13.4045 14.5036 13.4045 16.9719C13.4045 18.0435 13.6603 19.0554 14.1142 19.9498C12.2884 21.1215 11.0786 23.1695 11.0786 25.5C11.0786 26.9484 11.546 28.2878 12.3381 29.3754C10.3851 30.0774 8.85942 31.6755 8.25702 33.6738C8.03764 33.6517 7.81508 33.6404 7.58989 33.6404C3.95039 33.6404 1 36.5908 1 40.2303C1 43.8698 3.95039 46.8202 7.58989 46.8202C9.68073 46.8202 11.5441 45.8465 12.7514 44.3278C13.8946 46.2825 16.0159 47.5955 18.4438 47.5955C19.565 47.5955 20.6207 47.3155 21.5449 46.8217C22.4692 47.3155 23.5249 47.5955 24.646 47.5955C26.4939 47.5955 28.1641 46.8349 29.3607 45.6098C30.556 47.2813 32.5131 48.3708 34.7247 48.3708C38.3642 48.3708 41.3146 45.4204 41.3146 41.7809C41.3146 40.2219 40.7732 38.7894 39.8683 37.661C42.0982 36.6047 43.6404 34.3336 43.6404 31.7022C43.6404 28.0627 40.69 25.1124 37.0505 25.1124C33.411 25.1124 30.4607 28.0627 30.4607 31.7022C30.4607 33.2612 31.002 34.6937 31.9069 35.8221C31.1954 36.1592 30.5538 36.6199 30.01 37.1767C28.8148 35.5052 26.8576 34.4157 24.646 34.4157C23.5249 34.4157 22.4692 34.6957 21.5449 35.1895C21.4097 35.1173 21.2717 35.0496 21.1311 34.9867C21.0224 33.766 20.5809 32.641 19.8979 31.7032C22.4403 30.7894 24.2584 28.357 24.2584 25.5C24.2584 24.4283 24.0026 23.4164 23.5487 22.522C25.3745 21.3503 26.5843 19.3024 26.5843 16.9719C26.5843 15.6628 26.2025 14.4428 25.5443 13.4172ZM70 9.21908C70 12.3104 67.8714 14.9046 64.9999 15.6159C65.7094 16.6672 66.1236 17.9341 66.1236 19.2977C66.1236 21.0363 65.4504 22.6176 64.3504 23.7951C64.4956 24.3389 64.5731 24.9104 64.5731 25.5C64.5731 27.3156 63.8388 28.9598 62.651 30.1517C63.8388 31.3436 64.5731 32.9877 64.5731 34.8034C64.5731 37.3852 63.0883 39.6202 60.9261 40.7012C61.2772 41.5069 61.4719 42.3965 61.4719 43.3315C61.4719 46.971 58.5216 49.9213 54.8821 49.9213C51.2426 49.9213 48.2922 46.971 48.2922 43.3315C48.2922 40.7496 49.7769 38.5146 51.9391 37.4336C51.588 36.6279 51.3933 35.7384 51.3933 34.8034C51.3933 32.9877 52.1276 31.3436 53.3154 30.1517C52.1276 28.9598 51.3933 27.3156 51.3933 25.5C51.3933 23.7614 52.0665 22.1801 53.1665 21.0026C53.0213 20.4588 52.9438 19.8873 52.9438 19.2977C52.9438 16.2064 55.0724 13.6122 57.9439 12.9009C57.2345 11.8497 56.8203 10.5828 56.8203 9.21908C56.8203 5.57959 59.7706 2.6292 63.4101 2.6292C67.0496 2.6292 70 5.57959 70 9.21908Z" fill="white"/>
<path d="M25.5443 13.4172L25.1768 12.7634L24.4836 13.153L24.9131 13.8223L25.5443 13.4172ZM16.7703 11.2232L17.1377 11.877L17.831 11.4874L17.4015 10.8181L16.7703 11.2232ZM14.1142 19.9498L14.5192 20.5811L15.0897 20.2149L14.783 19.6105L14.1142 19.9498ZM12.3381 29.3754L12.5918 30.0812L13.5334 29.7427L12.9443 28.9339L12.3381 29.3754ZM8.25702 33.6738L8.182 34.42L8.79677 34.4818L8.97511 33.8902L8.25702 33.6738ZM12.7514 44.3278L13.3988 43.9491L12.8458 43.0037L12.1643 43.8611L12.7514 44.3278ZM21.5449 46.8217L21.8984 46.1602L21.5449 45.9713L21.1915 46.1602L21.5449 46.8217ZM29.3607 45.6098L29.9707 45.1736L29.4499 44.4451L28.8241 45.0858L29.3607 45.6098ZM39.8683 37.661L39.5472 36.9832L38.6892 37.3897L39.2832 38.1303L39.8683 37.661ZM31.9069 35.8221L32.228 36.4999L33.086 36.0934L32.492 35.3528L31.9069 35.8221ZM30.01 37.1767L29.4 37.6129L29.9209 38.3413L30.5466 37.7007L30.01 37.1767ZM21.5449 35.1895L21.1915 35.851L21.5449 36.0399L21.8984 35.851L21.5449 35.1895ZM21.1311 34.9867L20.384 35.0532L20.4231 35.4917L20.8249 35.6714L21.1311 34.9867ZM19.8979 31.7032L19.6442 30.9974L18.7025 31.3359L19.2916 32.1447L19.8979 31.7032ZM23.5487 22.522L23.1437 21.8908L22.5732 22.2569L22.8799 22.8614L23.5487 22.522ZM64.9999 15.6159L64.8196 14.8879L63.778 15.146L64.3783 16.0355L64.9999 15.6159ZM64.3504 23.7951L63.8023 23.2832L63.5185 23.587L63.6258 23.9887L64.3504 23.7951ZM62.651 30.1517L62.1197 29.6223L61.5921 30.1517L62.1197 30.6811L62.651 30.1517ZM60.9261 40.7012L60.5907 40.0304L59.9543 40.3486L60.2386 41.0009L60.9261 40.7012ZM51.9391 37.4336L52.2745 38.1044L52.9109 37.7863L52.6267 37.134L51.9391 37.4336ZM53.3154 30.1517L53.8466 30.6811L54.3742 30.1517L53.8466 29.6223L53.3154 30.1517ZM53.1665 21.0026L53.7146 21.5145L53.9984 21.2107L53.8911 20.8091L53.1665 21.0026ZM57.9439 12.9009L58.1242 13.6289L59.1659 13.3709L58.5656 12.4814L57.9439 12.9009ZM28.1601 7.66853C28.1601 9.85495 26.9589 11.7618 25.1768 12.7634L25.9118 14.071C28.1472 12.8146 29.6601 10.4187 29.6601 7.66853H28.1601ZM22.3202 1.82864C25.5455 1.82864 28.1601 4.44325 28.1601 7.66853H29.6601C29.6601 3.61482 26.3739 0.328644 22.3202 0.328644V1.82864ZM16.4803 7.66853C16.4803 4.44325 19.0949 1.82864 22.3202 1.82864V0.328644C18.2665 0.328644 14.9803 3.61482 14.9803 7.66853H16.4803ZM17.4015 10.8181C16.8185 9.90979 16.4803 8.8298 16.4803 7.66853H14.9803C14.9803 9.12554 15.4056 10.4855 16.1391 11.6283L17.4015 10.8181ZM14.1545 16.9719C14.1545 14.7855 15.3557 12.8786 17.1377 11.877L16.4028 10.5694C14.1674 11.8258 12.6545 14.2217 12.6545 16.9719H14.1545ZM14.783 19.6105C14.3813 18.8188 14.1545 17.9229 14.1545 16.9719H12.6545C12.6545 18.1642 12.9393 19.2921 13.4453 20.2892L14.783 19.6105ZM11.8286 25.5C11.8286 23.4355 12.8993 21.6206 14.5192 20.5811L13.7091 19.3186C11.6774 20.6224 10.3286 22.9034 10.3286 25.5H11.8286ZM12.9443 28.9339C12.2425 27.9702 11.8286 26.7845 11.8286 25.5H10.3286C10.3286 27.1124 10.8494 28.6054 11.7318 29.8169L12.9443 28.9339ZM8.97511 33.8902C9.50863 32.1204 10.8613 30.7032 12.5918 30.0812L12.0844 28.6696C9.90881 29.4516 8.21021 31.2305 7.53894 33.4573L8.97511 33.8902ZM7.58989 34.3904C7.78999 34.3904 7.9875 34.4005 8.182 34.42L8.33205 32.9275C8.08777 32.903 7.84018 32.8904 7.58989 32.8904V34.3904ZM1.75 40.2303C1.75 37.005 4.36461 34.3904 7.58989 34.3904V32.8904C3.53618 32.8904 0.25 36.1766 0.25 40.2303H1.75ZM7.58989 46.0702C4.36461 46.0702 1.75 43.4556 1.75 40.2303H0.25C0.25 44.284 3.53618 47.5702 7.58989 47.5702V46.0702ZM12.1643 43.8611C11.0932 45.2085 9.44241 46.0702 7.58989 46.0702V47.5702C9.91904 47.5702 11.9951 46.4845 13.3385 44.7945L12.1643 43.8611ZM18.4438 46.8455C16.2931 46.8455 14.4131 45.6833 13.3988 43.9491L12.104 44.7064C13.3762 46.8816 15.7386 48.3455 18.4438 48.3455V46.8455ZM21.1915 46.1602C20.3733 46.5973 19.4387 46.8455 18.4438 46.8455V48.3455C19.6912 48.3455 20.868 48.0337 21.8984 47.4832L21.1915 46.1602ZM24.646 46.8455C23.6512 46.8455 22.7165 46.5973 21.8984 46.1602L21.1915 47.4832C22.2218 48.0337 23.3986 48.3455 24.646 48.3455V46.8455ZM28.8241 45.0858C27.7628 46.1724 26.2837 46.8455 24.646 46.8455V48.3455C26.704 48.3455 28.5653 47.4975 29.8972 46.1339L28.8241 45.0858ZM34.7247 47.6208C32.7654 47.6208 31.0313 46.6566 29.9707 45.1736L28.7506 46.0461C30.0807 47.906 32.2608 49.1208 34.7247 49.1208V47.6208ZM40.5646 41.7809C40.5646 45.0062 37.95 47.6208 34.7247 47.6208V49.1208C38.7784 49.1208 42.0646 45.8346 42.0646 41.7809H40.5646ZM39.2832 38.1303C40.0853 39.1304 40.5646 40.3986 40.5646 41.7809H42.0646C42.0646 40.0452 41.4612 38.4484 40.4534 37.1918L39.2832 38.1303ZM42.8904 31.7022C42.8904 34.033 41.525 36.0463 39.5472 36.9832L40.1894 38.3388C42.6713 37.1631 44.3904 34.6342 44.3904 31.7022H42.8904ZM37.0505 25.8624C40.2758 25.8624 42.8904 28.477 42.8904 31.7022H44.3904C44.3904 27.6485 41.1042 24.3624 37.0505 24.3624V25.8624ZM31.2107 31.7022C31.2107 28.477 33.8253 25.8624 37.0505 25.8624V24.3624C32.9968 24.3624 29.7107 27.6485 29.7107 31.7022H31.2107ZM32.492 35.3528C31.6899 34.3528 31.2107 33.0845 31.2107 31.7022H29.7107C29.7107 33.4379 30.314 35.0347 31.3218 36.2913L32.492 35.3528ZM30.5466 37.7007C31.0289 37.2068 31.5977 36.7984 32.228 36.4999L31.5859 35.1443C30.793 35.5199 30.0787 36.033 29.4735 36.6526L30.5466 37.7007ZM24.646 35.1657C26.6053 35.1657 28.3394 36.1299 29.4 37.6129L30.6201 36.7404C29.2901 34.8805 27.1099 33.6657 24.646 33.6657V35.1657ZM21.8984 35.851C22.7165 35.4139 23.6512 35.1657 24.646 35.1657V33.6657C23.3986 33.6657 22.2218 33.9775 21.1915 34.528L21.8984 35.851ZM20.8249 35.6714C20.9495 35.7271 21.0717 35.787 21.1915 35.851L21.8984 34.528C21.7477 34.4475 21.594 34.3721 21.4372 34.302L20.8249 35.6714ZM19.2916 32.1447C19.897 32.976 20.2878 33.972 20.384 35.0532L21.8781 34.9202C21.757 33.56 21.2648 32.3061 20.5041 31.2617L19.2916 32.1447ZM23.5084 25.5C23.5084 28.0307 21.8983 30.1872 19.6442 30.9974L20.1515 32.409C22.9822 31.3916 25.0084 28.6833 25.0084 25.5H23.5084ZM22.8799 22.8614C23.2817 23.6531 23.5084 24.5489 23.5084 25.5H25.0084C25.0084 24.3077 24.7236 23.1798 24.2176 22.1826L22.8799 22.8614ZM25.8343 16.9719C25.8343 19.0364 24.7636 20.8512 23.1437 21.8908L23.9538 23.1532C25.9855 21.8494 27.3343 19.5684 27.3343 16.9719H25.8343ZM24.9131 13.8223C25.4961 14.7306 25.8343 15.8106 25.8343 16.9719H27.3343C27.3343 15.5149 26.909 14.1549 26.1755 13.0121L24.9131 13.8223ZM65.1803 16.3439C68.3785 15.5517 70.75 12.6633 70.75 9.21908H69.25C69.25 11.9576 67.3644 14.2576 64.8196 14.8879L65.1803 16.3439ZM66.8736 19.2977C66.8736 17.7799 66.4121 16.3676 65.6216 15.1964L64.3783 16.0355C65.0067 16.9667 65.3736 18.0882 65.3736 19.2977H66.8736ZM64.8985 24.3071C66.1231 22.9961 66.8736 21.2338 66.8736 19.2977H65.3736C65.3736 20.8388 64.7777 22.239 63.8023 23.2832L64.8985 24.3071ZM65.3231 25.5C65.3231 24.8445 65.2369 24.208 65.075 23.6016L63.6258 23.9887C63.7543 24.4699 63.8231 24.9763 63.8231 25.5H65.3231ZM63.1822 30.6811C64.5044 29.3544 65.3231 27.522 65.3231 25.5H63.8231C63.8231 27.1092 63.1731 28.5652 62.1197 29.6223L63.1822 30.6811ZM65.3231 34.8034C65.3231 32.7813 64.5044 30.949 63.1822 29.6223L62.1197 30.6811C63.1731 31.7381 63.8231 33.1941 63.8231 34.8034H65.3231ZM61.2615 41.3721C63.668 40.1689 65.3231 37.6801 65.3231 34.8034H63.8231C63.8231 37.0903 62.5087 39.0715 60.5907 40.0304L61.2615 41.3721ZM62.2219 43.3315C62.2219 42.2914 62.0052 41.3001 61.6137 40.4016L60.2386 41.0009C60.5493 41.7138 60.7219 42.5015 60.7219 43.3315H62.2219ZM54.8821 50.6713C58.9358 50.6713 62.2219 47.3852 62.2219 43.3315H60.7219C60.7219 46.5567 58.1073 49.1713 54.8821 49.1713V50.6713ZM47.5422 43.3315C47.5422 47.3852 50.8284 50.6713 54.8821 50.6713V49.1713C51.6568 49.1713 49.0422 46.5567 49.0422 43.3315H47.5422ZM51.6037 36.7628C49.1973 37.9659 47.5422 40.4547 47.5422 43.3315H49.0422C49.0422 41.0446 50.3565 39.0633 52.2745 38.1044L51.6037 36.7628ZM50.6433 34.8034C50.6433 35.8434 50.86 36.8348 51.2516 37.7332L52.6267 37.134C52.316 36.421 52.1433 35.6334 52.1433 34.8034H50.6433ZM52.7841 29.6223C51.462 30.949 50.6433 32.7813 50.6433 34.8034H52.1433C52.1433 33.1941 52.7932 31.7381 53.8466 30.6811L52.7841 29.6223ZM50.6433 25.5C50.6433 27.522 51.462 29.3544 52.7841 30.6811L53.8466 29.6223C52.7932 28.5652 52.1433 27.1092 52.1433 25.5H50.6433ZM52.6184 20.4906C51.3938 21.8016 50.6433 23.5639 50.6433 25.5H52.1433C52.1433 23.9589 52.7392 22.5587 53.7146 21.5145L52.6184 20.4906ZM52.1938 19.2977C52.1938 19.9532 52.2799 20.5898 52.4419 21.1961L53.8911 20.8091C53.7626 20.3278 53.6938 19.8214 53.6938 19.2977H52.1938ZM57.7636 12.1729C54.5654 12.9651 52.1938 15.8536 52.1938 19.2977H53.6938C53.6938 16.5592 55.5795 14.2593 58.1242 13.6289L57.7636 12.1729ZM56.0703 9.21908C56.0703 10.7369 56.5318 12.1492 57.3222 13.3205L58.5656 12.4814C57.9371 11.5502 57.5703 10.4286 57.5703 9.21908H56.0703ZM63.4101 1.8792C59.3564 1.8792 56.0703 5.16538 56.0703 9.21908H57.5703C57.5703 5.9938 60.1849 3.3792 63.4101 3.3792V1.8792ZM70.75 9.21908C70.75 5.16538 67.4638 1.8792 63.4101 1.8792V3.3792C66.6354 3.3792 69.25 5.9938 69.25 9.21908H70.75Z" fill="#FA4811"/>
</svg>
