<svg width="51" height="48" viewBox="0 0 51 48" fill="none" xmlns="http://www.w3.org/2000/svg">
<g clip-path="url(#clip0_571_855)">
<path d="M42.5591 26.9327C42.4235 26.7479 42.2714 26.5775 42.107 26.4215C42.0762 26.3886 42.0454 26.3578 42.0146 26.3291C41.9837 26.2963 41.9529 26.2655 41.9221 26.2347C41.8913 26.2039 41.8605 26.1731 41.8296 26.1423C41.7988 26.1115 41.768 26.0807 41.7372 26.0499C41.7063 26.0191 41.6755 25.9883 41.6426 25.9575C41.6118 25.9267 41.5831 25.8939 41.5502 25.8651C41.5194 25.8323 41.4885 25.8015 41.4577 25.7728C41.4269 25.7399 41.3961 25.7091 41.3652 25.6783C41.3344 25.6475 41.3036 25.6167 41.2728 25.5859C41.242 25.5551 41.2111 25.5243 41.1803 25.4936C41.1495 25.4628 41.1187 25.432 41.0858 25.4012C41.055 25.3704 41.0262 25.3375 40.9933 25.3088C40.9625 25.2759 40.9317 25.2451 40.9009 25.2164C40.87 25.1836 40.8392 25.1528 40.8084 25.122C40.7776 25.0912 40.7467 25.0604 40.7159 25.0296C40.6851 24.9988 40.6543 24.968 40.6235 24.9372C40.5926 24.9064 40.5618 24.8756 40.5289 24.8448C40.5002 24.814 40.4693 24.7812 40.4365 24.7524C40.4056 24.7196 40.3769 24.6888 40.344 24.6601C40.3132 24.6272 40.2824 24.5964 40.2515 24.5656C40.2207 24.5348 40.1899 24.504 40.1591 24.4732C40.1282 24.4424 40.0974 24.4116 40.0666 24.3809C40.0358 24.3501 40.005 24.3193 39.9721 24.2885C39.9433 24.2577 39.9125 24.2248 39.8796 24.1961C39.8488 24.1653 39.82 24.1324 39.7872 24.1037C39.7563 24.0709 39.7255 24.0401 39.6947 24.0093C39.6639 23.9785 39.633 23.9477 39.6022 23.9169C39.5714 23.8861 39.5406 23.8553 39.5098 23.8245C39.4789 23.7937 39.4481 23.7629 39.4152 23.7321C39.3865 23.7013 39.3556 23.6685 39.3228 23.6397C38.6262 22.9294 37.6625 22.5168 36.6536 22.5168H33.3926C33.2858 22.5168 33.181 22.5229 33.0762 22.5291L35.1125 16.2881C35.507 15.081 35.2954 13.7466 34.5495 12.7201C34.4056 12.521 34.2453 12.3403 34.0707 12.174L33.9782 12.0816C33.9474 12.0508 33.9166 12.02 33.8858 11.9893C33.8549 11.9585 33.8241 11.9256 33.7933 11.8969C33.7625 11.8661 33.7316 11.8332 33.7008 11.8045C33.67 11.7716 33.6392 11.7408 33.6063 11.7101C33.5755 11.6793 33.5467 11.6485 33.5138 11.6177C33.483 11.5869 33.4542 11.5561 33.4214 11.5253C33.3905 11.4945 33.3597 11.4637 33.3289 11.4329C33.2981 11.4021 33.2673 11.3693 33.2364 11.3405C33.2056 11.3097 33.1748 11.2769 33.144 11.2481C33.1131 11.2153 33.0823 11.1845 33.0494 11.1537C33.0186 11.1229 32.9899 11.0921 32.957 11.0613C32.9262 11.0305 32.8974 10.9997 32.8645 10.9689C32.8337 10.9381 32.8029 10.9073 32.7721 10.8766C32.7412 10.8458 32.7104 10.8129 32.6796 10.7842C32.6488 10.7534 32.6179 10.7205 32.5871 10.6918C32.5563 10.661 32.5255 10.6281 32.4926 10.5974C32.4618 10.5666 32.433 10.5358 32.4001 10.505C32.3693 10.4742 32.3405 10.4434 32.3077 10.4126C32.2768 10.3818 32.246 10.351 32.2152 10.3202C32.1844 10.2894 32.1536 10.2566 32.1227 10.2278C32.0919 10.197 32.0611 10.1642 32.0303 10.1354C31.9994 10.1046 31.9686 10.0718 31.9378 10.0431C31.907 10.0102 31.8762 9.97941 31.8433 9.94862C31.8125 9.91783 31.7837 9.88703 31.7508 9.85624C31.72 9.82544 31.6892 9.79465 31.6583 9.76386C31.6275 9.73306 31.5967 9.70021 31.5659 9.67147C31.5351 9.64068 31.5042 9.60783 31.4734 9.57909C31.4426 9.54624 31.4118 9.51545 31.3789 9.48671C31.3501 9.45386 31.3193 9.42307 31.2864 9.39227C30.5446 8.64089 29.5234 8.20361 28.4529 8.20361H24.4357C22.3932 8.20361 20.5973 9.50724 19.9645 11.4452L16.3459 22.5394C16.4795 22.9397 16.6275 23.3421 16.7898 23.7465C17.1186 24.5656 17.4925 25.3765 17.9138 26.1751L22.4569 12.2582C22.7364 11.4021 23.5337 10.8232 24.4357 10.8232H28.4529C29.3755 10.8232 30.0309 11.7244 29.7433 12.601L25.1713 26.6104C24.9371 27.333 25.4754 28.0762 26.2378 28.0762H30.109C30.594 28.0762 31.0255 27.7641 31.1755 27.3043L31.4138 26.5713C31.6933 25.7153 32.4926 25.1363 33.3926 25.1363H36.6536C37.4159 25.1363 37.9543 25.8795 37.718 26.6021L37.0132 28.7618C36.7337 29.6159 35.9364 30.1969 35.0364 30.1969H20.4679C21.9473 32.1656 23.698 34.0174 25.6706 35.6885H37.9132C39.9536 35.6885 41.7495 34.3869 42.3824 32.4469L43.0872 30.2872C43.457 29.154 43.2598 27.8996 42.5591 26.9327Z" fill="#F1EFE1"/>
<path d="M46.5537 10.507C46.9831 9.83566 46.7859 8.94263 46.1119 8.51357C45.6146 8.19536 44.6633 8.74144 44.0817 9.2362C43.9872 9.31832 43.8413 9.22594 43.8763 9.10481C44.0797 8.36986 44.1742 7.27769 43.6769 6.96154C43.005 6.53247 42.1112 6.72955 41.6817 7.40087C41.6632 7.42961 41.6263 7.43782 41.5975 7.41934C40.9256 6.99028 40.0317 7.18736 39.6023 7.86073C39.2838 8.35754 39.8304 9.30806 40.3256 9.88904C40.4078 9.98348 40.3153 10.1292 40.1941 10.0943C39.4584 9.89109 38.3653 9.79666 38.0488 10.2935C37.6194 10.9648 37.8166 11.8578 38.4886 12.2869C38.5173 12.3054 38.5256 12.3423 38.5071 12.3711C38.0776 13.0424 38.2749 13.9354 38.9488 14.3645C39.4461 14.6827 40.3975 14.1366 40.979 13.6418C41.0735 13.5597 41.2194 13.6521 41.1845 13.7732C40.981 14.5082 40.8865 15.6003 41.3838 15.9165C42.0557 16.3456 42.9495 16.1485 43.379 15.4772C43.3975 15.4484 43.4345 15.4402 43.4632 15.4587C44.1352 15.8878 45.029 15.6907 45.4585 15.0173C45.777 14.5205 45.2304 13.57 44.7352 12.989C44.653 12.8946 44.7454 12.7488 44.8667 12.7837C45.6023 12.9869 46.6955 13.0814 47.0119 12.5846C47.4413 11.9132 47.2441 11.0202 46.5722 10.5911C46.5434 10.5727 46.5352 10.5357 46.5537 10.507Z" fill="#F1EFE1"/>
<path d="M50.392 19.1725C50.7578 19.0124 50.9242 18.5874 50.764 18.222C50.6448 17.951 50.0982 17.914 49.7201 17.9571C49.6585 17.9654 49.6235 17.8853 49.6708 17.8463C49.9605 17.5979 50.3037 17.1709 50.1845 16.8999C50.0242 16.5345 49.5989 16.3682 49.2331 16.5283C49.2167 16.5345 49.2003 16.5283 49.1941 16.5119C49.0338 16.1464 48.6085 15.9802 48.2427 16.1403C47.9715 16.2594 47.9345 16.8054 47.9776 17.1832C47.9859 17.2448 47.9057 17.2797 47.8667 17.2325C47.6181 16.943 47.1907 16.6001 46.9194 16.7192C46.5537 16.8794 46.3872 17.3043 46.5475 17.6697C46.5537 17.6862 46.5475 17.7026 46.5311 17.7087C46.1653 17.8689 45.9989 18.2938 46.1591 18.6593C46.2783 18.9302 46.8249 18.9672 47.203 18.9241C47.2646 18.9159 47.2996 18.9959 47.2523 19.0349C46.9626 19.2834 46.6194 19.7104 46.7386 19.9814C46.8989 20.3468 47.3242 20.5131 47.69 20.3529C47.7064 20.3468 47.7228 20.3529 47.729 20.3694C47.8893 20.7348 48.3146 20.9011 48.6804 20.7409C48.9516 20.6219 48.9886 20.0758 48.9455 19.698C48.9372 19.6365 49.0174 19.6016 49.0564 19.6488C49.305 19.9382 49.7324 20.2811 50.0037 20.162C50.3694 20.0019 50.5359 19.5769 50.3756 19.2115C50.3694 19.1951 50.3756 19.1787 50.392 19.1725Z" fill="#F1EFE1"/>
<path d="M47.4701 24.97C47.7331 24.8551 47.8523 24.5492 47.7372 24.2864C47.653 24.0914 47.2585 24.0647 46.9872 24.0975C46.942 24.1037 46.9174 24.0462 46.9523 24.0175C47.1598 23.8389 47.4064 23.5309 47.3222 23.338C47.2071 23.0752 46.9009 22.9561 46.6379 23.0711C46.6276 23.0752 46.6132 23.0711 46.6091 23.0608C46.4941 22.798 46.1879 22.679 45.9249 22.7939C45.7297 22.8781 45.703 23.2723 45.7358 23.5432C45.742 23.5884 45.6845 23.613 45.6557 23.5781C45.4769 23.3708 45.1687 23.1244 44.9756 23.2086C44.7126 23.3236 44.5934 23.6295 44.7084 23.8922C44.7126 23.9025 44.7084 23.9169 44.6982 23.921C44.4352 24.036 44.316 24.3418 44.431 24.6046C44.5153 24.7997 44.9098 24.8263 45.1811 24.7935C45.2263 24.7873 45.2509 24.8448 45.216 24.8736C45.0084 25.0522 44.7619 25.3601 44.8461 25.5531C44.9612 25.8159 45.2674 25.9349 45.5304 25.82C45.5406 25.8159 45.555 25.82 45.5591 25.8302C45.6742 26.093 45.9804 26.2121 46.2434 26.0971C46.4386 26.0129 46.4653 25.6188 46.4324 25.3478C46.4263 25.3026 46.4838 25.278 46.5126 25.3129C46.6913 25.5202 46.9996 25.7666 47.1927 25.6824C47.4557 25.5675 47.5749 25.2616 47.4598 24.9988C47.4557 24.9885 47.4598 24.9742 47.4701 24.97Z" fill="#F1EFE1"/>
<path d="M46.4488 44.9719C43.7447 46.9448 40.1755 48 36.0536 48C22.6007 48 7.25958 37.0393 1.8575 23.5658C-0.795256 16.9553 -0.597995 10.6281 2.39791 6.20401C5.10614 2.20281 9.89178 0 15.8692 0C19.909 0 24.2569 1.008 28.5289 2.89876C28.3912 2.89466 28.2535 2.89466 28.1158 2.89466C22.6644 2.89466 18.2589 4.96608 15.711 8.72914C12.9432 12.8166 12.711 18.5402 15.074 24.4321C17.2911 29.9628 21.5199 35.1547 26.9795 39.0471C32.4556 42.9539 38.5399 45.1053 44.1125 45.1053C44.9139 45.1053 45.6926 45.0602 46.4488 44.9719Z" fill="#F1EFE1"/>
</g>
<defs>
<clipPath id="clip0_571_855">
<rect width="50.8235" height="48" fill="white"/>
</clipPath>
</defs>
</svg>
