<svg width="72" height="53" viewBox="0 0 72 53" fill="none" xmlns="http://www.w3.org/2000/svg">
<path fill-rule="evenodd" clip-rule="evenodd" d="M19.6806 5.96223L17.7433 0L15.8061 5.96223L9.537 5.96223L14.6088 9.64709L12.6715 15.6093L13.3604 15.1088L11.9711 19.3845H5.70206L10.7738 23.0694L8.83659 29.0316L10.9623 27.4872L9.46666 31.8481H2.84932L8.20286 35.5329L6.15799 41.4952L8.8131 39.6677L7.54916 43.3529L0.931824 43.3529L6.28536 47.0378L4.24049 53L9.59403 49.3151L14.9476 53L12.9027 47.0378L16.3052 44.6958L19.7077 47.0378L17.6628 53L23.0163 49.3151L28.3699 53L26.325 47.0378L28.7688 45.3557L31.2125 47.0378L29.1676 53L34.5212 49.3151L39.8747 53L37.8298 47.0378L43.1834 43.3529H36.566L34.5212 37.3907L32.4763 43.3529H31.6786H25.859H25.0612L23.0163 37.3907L20.9715 43.3529L18.2562 43.3529L14.3541 43.3529H11.6389L10.0767 38.7979L11.5115 37.8103L16.8651 41.4952L14.8202 35.5329L20.1737 31.8481H13.5564L11.8416 26.8483L13.9084 25.3468L18.9801 29.0316L17.0429 23.0694L22.1147 19.3845H15.8456L14.247 14.4646L17.7433 11.9245L22.8151 15.6093L20.8778 9.64709L25.9496 5.96223L19.6806 5.96223ZM64.8237 5.96223L62.8864 0L60.9492 5.96223L54.6801 5.96223L59.7519 9.64709L57.8147 15.6093L58.5035 15.1089L57.1142 19.3845H50.8452L55.9169 23.0694L53.9797 29.0316L56.1054 27.4872L54.6097 31.8481H47.9924L53.3459 35.533L51.3011 41.4952L53.9562 39.6676L52.6923 43.3529L46.0749 43.3529L51.4285 47.0378L49.3836 53L54.7371 49.3151L60.0907 53L58.0458 47.0378L63.3993 43.3529L56.782 43.3529L55.2198 38.7979L56.6546 37.8103L62.0082 41.4952L59.9633 35.533L65.3168 31.8481H58.6995L56.9847 26.8483L59.0515 25.3468L64.1232 29.0316L62.186 23.0694L67.2578 19.3845H60.9887L59.3902 14.4647L62.8864 11.9245L67.9582 15.6093L66.021 9.64709L71.0927 5.96223L64.8237 5.96223Z" fill="#FA4811"/>
</svg>
