<svg width="250" height="236" viewBox="0 0 250 236" fill="none" xmlns="http://www.w3.org/2000/svg">
<g clip-path="url(#clip0_571_885)">
<path d="M210.3 148.15L206.87 158.66C203.79 168.11 195.05 174.46 185.11 174.46H125.54C115.94 166.31 107.43 157.3 100.23 147.7H171.11C175.5 147.7 179.38 144.88 180.74 140.71L184.17 130.19C185.32 126.67 182.69 123.05 178.99 123.05H163.12C158.73 123.05 154.85 125.87 153.49 130.04L152.32 133.61C151.59 135.85 149.5 137.37 147.14 137.37H128.3C124.59 137.37 121.96 133.75 123.11 130.23L145.36 61.9901C146.75 57.7201 143.57 53.3301 139.07 53.3301H119.52C115.14 53.3301 111.25 56.1501 109.9 60.3201L87.7999 128.11C85.7499 124.22 83.9199 120.27 82.3199 116.28C81.5299 114.31 80.8099 112.34 80.1499 110.39L97.7699 56.3701C100.85 46.9201 109.59 40.5801 119.52 40.5801H139.07C144.28 40.5801 149.26 42.7001 152.87 46.3701C153.02 46.5101 153.17 46.6701 153.32 46.8201C153.48 46.9701 153.62 47.1201 153.77 47.2701C153.93 47.4201 154.08 47.5701 154.23 47.7201C154.38 47.8701 154.53 48.0201 154.68 48.1701C154.83 48.3201 154.98 48.4701 155.13 48.6301C155.28 48.7701 155.43 48.9201 155.58 49.0801C155.73 49.2201 155.88 49.3801 156.03 49.5301C156.19 49.6801 156.33 49.8301 156.48 49.9801C156.64 50.1301 156.79 50.2801 156.94 50.4301C157.09 50.5801 157.24 50.7301 157.39 50.8801C157.54 51.0301 157.69 51.1801 157.84 51.3301C157.99 51.4801 158.14 51.6301 158.29 51.7901C158.44 51.9301 158.59 52.0901 158.74 52.2401C158.9 52.3801 159.04 52.5401 159.19 52.6901C159.35 52.8401 159.5 52.9901 159.65 53.1401C159.8 53.2901 159.95 53.4401 160.1 53.5901C160.25 53.7401 160.4 53.8901 160.55 54.0401C160.7 54.1901 160.85 54.3401 161 54.5001C161.15 54.6401 161.3 54.8001 161.45 54.9501C161.61 55.0901 161.75 55.2501 161.9 55.4001C162.06 55.5501 162.21 55.7001 162.36 55.8501C162.51 56.0001 162.66 56.1501 162.81 56.3001C162.96 56.4501 163.11 56.6001 163.26 56.7501C163.41 56.9001 163.56 57.0501 163.71 57.2101C163.86 57.3501 164.01 57.5101 164.16 57.6601C164.32 57.8001 164.46 57.9601 164.61 58.1101C164.77 58.2601 164.92 58.4101 165.06 58.5601C165.22 58.7101 165.37 58.8601 165.52 59.0101C165.67 59.1601 165.82 59.3101 165.97 59.4601C166.12 59.6101 166.27 59.7601 166.42 59.9201C167.27 60.7201 168.05 61.6101 168.75 62.5701C172.38 67.5701 173.4 74.0701 171.49 79.9501L161.58 110.35C162.09 110.32 162.6 110.29 163.12 110.29H178.99C183.9 110.29 188.58 112.3 191.98 115.76C192.13 115.91 192.28 116.06 192.43 116.21C192.59 116.36 192.73 116.51 192.88 116.66C193.04 116.81 193.19 116.96 193.34 117.12C193.49 117.26 193.64 117.42 193.79 117.57C193.94 117.71 194.09 117.87 194.24 118.02C194.39 118.16 194.54 118.32 194.69 118.47L195.14 118.92C195.3 119.07 195.44 119.22 195.59 119.37C195.75 119.52 195.9 119.67 196.04 119.82C196.2 119.97 196.35 120.12 196.5 120.28C196.65 120.42 196.8 120.58 196.95 120.73L197.85 121.63C198.01 121.78 198.15 121.93 198.3 122.08C198.46 122.23 198.61 122.38 198.76 122.54C198.91 122.68 199.06 122.83 199.21 122.99C199.36 123.13 199.51 123.29 199.66 123.44C199.81 123.58 199.96 123.74 200.11 123.89L200.56 124.34C200.72 124.49 200.86 124.64 201.01 124.79C201.17 124.94 201.32 125.09 201.47 125.25C201.62 125.39 201.77 125.54 201.92 125.7C202.07 125.84 202.22 126 202.37 126.15C202.52 126.29 202.67 126.45 202.82 126.6L203.27 127.05C203.43 127.2 203.57 127.35 203.72 127.5C203.88 127.65 204.03 127.8 204.18 127.96C204.33 128.1 204.48 128.25 204.63 128.41C204.78 128.55 204.93 128.71 205.08 128.86C205.23 129 205.38 129.16 205.53 129.31C206.33 130.07 207.07 130.9 207.72 131.81C211.14 136.51 212.1 142.62 210.3 148.15Z" stroke="#F1EFE1" stroke-width="3" stroke-miterlimit="10"/>
<path d="M176.08 233.54C110.94 233.54 36.65 180.4 10.47 115.08C-2.31997 83.16 -1.39997 52.63 13.01 31.34C26.03 12.1 49.06 1.5 77.85 1.5C95.95 1.5 115.68 5.76 135.16 13.85C109.38 14.42 88.55 24.59 76.34 42.64C62.7 62.8 61.54 90.98 73.15 119.96C84.01 147.06 104.69 172.48 131.4 191.54C158.2 210.67 187.99 221.21 215.29 221.21C218.01 221.21 220.7 221.1 223.34 220.89C210.65 229.17 194.39 233.54 176.08 233.54Z" stroke="#F1EFE1" stroke-width="3" stroke-miterlimit="10"/>
<path d="M227.18 51.8C229.27 48.53 228.31 44.18 225.03 42.09C222.61 40.54 217.98 43.2 215.15 45.61C214.69 46.01 213.98 45.56 214.15 44.97C215.14 41.39 215.6 36.07 213.18 34.53C209.91 32.44 205.56 33.4 203.47 36.67C203.38 36.81 203.2 36.85 203.06 36.76C199.79 34.67 195.44 35.63 193.35 38.91C191.8 41.33 194.46 45.96 196.87 48.79C197.27 49.25 196.82 49.96 196.23 49.79C192.65 48.8 187.33 48.34 185.79 50.76C183.7 54.03 184.66 58.38 187.93 60.47C188.07 60.56 188.11 60.74 188.02 60.88C185.93 64.15 186.89 68.5 190.17 70.59C192.59 72.14 197.22 69.48 200.05 67.07C200.51 66.67 201.22 67.12 201.05 67.71C200.06 71.29 199.6 76.61 202.02 78.15C205.29 80.24 209.64 79.28 211.73 76.01C211.82 75.87 212 75.83 212.14 75.92C215.41 78.01 219.76 77.05 221.85 73.77C223.4 71.35 220.74 66.72 218.33 63.89C217.93 63.43 218.38 62.72 218.97 62.89C222.55 63.88 227.87 64.34 229.41 61.92C231.5 58.65 230.54 54.3 227.27 52.21C227.13 52.12 227.09 51.94 227.18 51.8Z" stroke="#F1EFE1" stroke-width="3" stroke-miterlimit="10"/>
<path d="M245.85 94C247.63 93.22 248.44 91.15 247.66 89.37C247.08 88.05 244.42 87.87 242.58 88.08C242.28 88.12 242.11 87.73 242.34 87.54C243.75 86.33 245.42 84.25 244.84 82.93C244.06 81.15 241.99 80.34 240.21 81.12C240.13 81.15 240.05 81.12 240.02 81.04C239.24 79.26 237.17 78.45 235.39 79.23C234.07 79.81 233.89 82.47 234.1 84.31C234.14 84.61 233.75 84.78 233.56 84.55C232.35 83.14 230.27 81.47 228.95 82.05C227.17 82.83 226.36 84.9 227.14 86.68C227.17 86.76 227.14 86.84 227.06 86.87C225.28 87.65 224.47 89.72 225.25 91.5C225.83 92.82 228.49 93 230.33 92.79C230.63 92.75 230.8 93.14 230.57 93.33C229.16 94.54 227.49 96.62 228.07 97.94C228.85 99.72 230.92 100.53 232.7 99.75C232.78 99.72 232.86 99.75 232.89 99.83C233.67 101.61 235.74 102.42 237.52 101.64C238.84 101.06 239.02 98.4 238.81 96.56C238.77 96.26 239.16 96.09 239.35 96.32C240.56 97.73 242.64 99.4 243.96 98.82C245.74 98.04 246.55 95.97 245.77 94.19C245.74 94.11 245.77 94.03 245.85 94Z" stroke="#F1EFE1" stroke-width="2.5" stroke-miterlimit="10"/>
<path d="M231.64 122.25C232.92 121.69 233.5 120.2 232.94 118.92C232.53 117.97 230.61 117.84 229.29 118C229.07 118.03 228.95 117.75 229.12 117.61C230.13 116.74 231.33 115.24 230.92 114.3C230.36 113.02 228.87 112.44 227.59 113C227.54 113.02 227.47 113 227.45 112.95C226.89 111.67 225.4 111.09 224.12 111.65C223.17 112.06 223.04 113.98 223.2 115.3C223.23 115.52 222.95 115.64 222.81 115.47C221.94 114.46 220.44 113.26 219.5 113.67C218.22 114.23 217.64 115.72 218.2 117C218.22 117.05 218.2 117.12 218.15 117.14C216.87 117.7 216.29 119.19 216.85 120.47C217.26 121.42 219.18 121.55 220.5 121.39C220.72 121.36 220.84 121.64 220.67 121.78C219.66 122.65 218.46 124.15 218.87 125.09C219.43 126.37 220.92 126.95 222.2 126.39C222.25 126.37 222.32 126.39 222.34 126.44C222.9 127.72 224.39 128.3 225.67 127.74C226.62 127.33 226.75 125.41 226.59 124.09C226.56 123.87 226.84 123.75 226.98 123.92C227.85 124.93 229.35 126.13 230.29 125.72C231.57 125.16 232.15 123.67 231.59 122.39C231.57 122.34 231.59 122.27 231.64 122.25Z" stroke="#F1EFE1" stroke-width="2" stroke-miterlimit="10"/>
<path d="M87.8 128.11C91.32 134.83 95.48 141.39 100.23 147.7" stroke="#F1EFE1" stroke-width="3" stroke-miterlimit="10"/>
</g>
<defs>
  <clipPath id="clip0_571_885">
  <rect width="249.21" height="235.04" fill="white"/>
  </clipPath>
  <style type="text/css">

  path {
    stroke-dasharray: 100;
    stroke-dashoffset: 0;
    animation: dash 5s linear forwards infinite;
  }
  @keyframes dash {
    to {
      stroke-dashoffset: 800;
    }
  }
  </style>
</defs>
</svg>
