<svg width="337" height="291" viewBox="0 0 337 291" fill="none" xmlns="http://www.w3.org/2000/svg">
<path fill-rule="evenodd" clip-rule="evenodd" d="M102.5 0C127.641 0 150.668 7.68273 168.5 20.4331C186.332 7.68273 209.359 0 234.5 0C291.109 0 337 38.9512 337 87C337 109.524 326.915 130.05 310.369 145.5C326.915 160.95 337 181.476 337 204C337 252.049 291.109 291 234.5 291C209.359 291 186.332 283.317 168.5 270.567C150.668 283.317 127.641 291 102.5 291C45.8908 291 0 252.049 0 204C0 181.476 10.0848 160.95 26.631 145.5C10.0848 130.05 0 109.524 0 87C0 38.9512 45.8908 0 102.5 0Z" fill="#FA4811"/>
<path fill-rule="evenodd" clip-rule="evenodd" d="M191.677 166.47H201.772H214.767L170.392 64H166.099L123 166.47H125.556H142.145L146.407 121.701L159.504 93.5789V221.637L148.829 227H159.504H163.565H168.206H172.267H182.942L172.267 221.637V104.649L197.895 158.347L191.677 166.47Z" fill="#F1EFE1"/>
</svg>
